# xmcd
#
# Track frame offsets:
#	150
#	17781
#	29862
#	43863
#	61151
#	76819
#	92495
#	111886
#	125329
#	141463
#	160062
#
# Disc length: 2326 seconds
#
# Revision: 0
# Processed by: cddbd v1.5.2PL0 Copyright (c) Steve Scherf et al.
# Submitted via: audiograbber 1.83.01
#
DISCID=9009140b
DTITLE=Shenandoah - Good News Travels Fast
DYEAR=2016
DGENRE=Country
TTITLE0=A Cross Between A Sinner And A Saint
TTITLE1=Didn't It Rain
TTITLE2=Good News Travels Fast
TTITLE3=Hallelujah For The Cross
TTITLE4=I Know He Knows
TTITLE5=Seconds Count (Feat. Karen Peck)
TTITLE6=Stained Glass
TTITLE7=Sunday Morning Sermon
TTITLE8=Just Wait, Be Still
TTITLE9=Like Every Days A Sunday
TTITLE10=If I'm Right
EXTD=
EXTT0=
EXTT1=
EXTT2=
EXTT3=
EXTT4=
EXTT5=
EXTT6=
EXTT7=
EXTT8=
EXTT9=
EXTT10=
PLAYORDER=
